<?xml version="1.0" encoding="UTF-8"?>
<svg id="Capa_6" data-name="Capa 6" xmlns="http://www.w3.org/2000/svg" viewBox="0 0 792 612">
  <defs>
    <style>
      .cls-1 {
        letter-spacing: -.03em;
      }

      .cls-2, .cls-3 {
        fill: none;
        stroke: #231f20;
        stroke-miterlimit: 10;
      }

      .cls-4 {
        letter-spacing: -.03em;
      }

      .cls-5 {
        letter-spacing: -.04em;
      }

      .cls-6 {
        letter-spacing: 0em;
      }

      .cls-7 {
        letter-spacing: 0em;
      }

      .cls-3 {
        stroke-width: 4px;
      }

      .cls-8 {
        letter-spacing: -.01em;
      }

      .cls-9 {
        fill: #659865;
      }

      .cls-10 {
        fill: #231f20;
        font-family: Bahnschrift, Bahnschrift;
        font-size: 26.02px;
        font-variation-settings: 'wght' 400, 'wdth' 100;
      }

      .cls-11 {
        letter-spacing: 0em;
      }

      .cls-12 {
        letter-spacing: -.02em;
      }

      .cls-13 {
        letter-spacing: -.02em;
      }

      .cls-14 {
        letter-spacing: -.04em;
      }

      .cls-15 {
        letter-spacing: 0em;
      }

      .cls-16 {
        fill: #979796;
      }
    </style>
  </defs>
  <path class="cls-16" d="M437.51,242.9l-29.9,39.13c-1.67,2.18-4.84,2.49-6.9,.68l-18.32-16.14c-.95-.84-1.53-2.03-1.6-3.3l-2.32-42.89c-.13-2.36,1.5-4.5,3.83-4.91,3.47-.6,7.04-.89,10.69-.84,18.23,.28,34.33,9.09,44.56,22.58,1.28,1.68,1.23,4.02-.05,5.7Z"/>
  <path class="cls-16" d="M365.77,252.29l-18.39-16.2c-1.95-1.72-2.09-4.73-.28-6.6,5.17-5.34,11.48-9.56,18.54-12.26,2.91-1.11,6.06,.9,6.23,4.01l1.48,27.38c.22,4.04-4.54,6.35-7.58,3.67Z"/>
  <path class="cls-16" d="M345.82,281.19l-.5,.27-11.57,8.59c-2.25,1.67-5.45,.49-6.13-2.22-.96-3.87-1.45-7.93-1.38-12.1,.1-6.63,1.58-12.93,4.16-18.62,1.47-3.24,6.12-3.05,7.27,.31l8.15,23.78Z"/>
  <path class="cls-16" d="M354.87,306.84l-2.91,12.92c-.72,3.19-4.62,4.45-7.04,2.25-5.1-4.62-9.27-10.23-12.2-16.54-.85-1.83-.26-4,1.36-5.2l14.8-10.99c.33,.74,.66,1.48,.99,2.22,1.63,4.33,3.25,8.67,4.88,13,.26,.75,.3,1.56,.13,2.33Z"/>
  <path class="cls-16" d="M455.04,278.12c-.21,13.4-4.99,25.67-12.84,35.33-1.72,2.12-4.85,2.39-6.89,.59l-21.93-19.32c-1.88-1.66-2.16-4.49-.64-6.49l28.35-37.1c2.15-2.82,6.53-2.4,8.09,.78,3.88,7.9,6,16.81,5.85,26.21Z"/>
  <path class="cls-16" d="M428.99,320.64c2.19,1.93,2.21,5.37,0,7.27-10.41,8.93-24,14.24-38.8,14.01-10.58-.16-20.45-3.14-28.92-8.2-1.78-1.07-2.66-3.18-2.2-5.2l3.87-17.19c.4-1.79,1.78-3.19,3.55-3.63l34.82-8.65c1.54-.38,3.17,.01,4.37,1.06l23.32,20.54Z"/>
  <path class="cls-9" d="M386.06,293.64l-19.15,4.76c-2.22,.55-4.5-.69-5.24-2.86l-2.5-7.31c-.7-2.03,.17-4.27,2.05-5.3l11.54-6.36c1.63-.9,3.65-.68,5.05,.55l10.11,8.91c2.67,2.35,1.6,6.74-1.85,7.6Z"/>
  <path class="cls-2" d="M445.75,238.58l-40.39,54.59-28.13-24.01-4-57.41c5.51-1.48,11.31-2.26,17.29-2.26,22.92,0,43.16,11.52,55.23,29.09Z"/>
  <path class="cls-2" d="M377.24,269.17l-39.6-33.8c8.85-11.36,21.28-19.8,35.6-23.61l4,57.41Z"/>
  <path class="cls-2" d="M351.57,283.83l-.7,.4-22.49,17.25c-3.12-7.72-4.83-16.17-4.83-25.01,0-14.04,4.32-27.09,11.74-37.86l16.29,45.22Z"/>
  <path class="cls-2" d="M359.33,305.38l-5.65,27.04c-11.29-7.46-20.2-18.23-25.31-30.94l22.49-17.25,.7-.4,7.76,21.55Z"/>
  <path class="cls-2" d="M457.5,276.47c0,17.69-6.86,33.79-18.09,45.77l-34.05-29.06,40.39-54.59c7.41,10.77,11.75,23.83,11.75,37.89Z"/>
  <path class="cls-2" d="M439.42,322.24c-12.22,13.05-29.6,21.21-48.89,21.21-13.61,0-26.28-4.06-36.84-11.03l5.65-27.04,46.03-12.21,34.05,29.06Z"/>
  <line class="cls-3" x1="445.88" y1="327.76" x2="439.42" y2="322.24"/>
  <path class="cls-3" d="M377.24,269.17l-25.67,14.66-16.29-45.22c.75-1.1,1.53-2.18,2.36-3.24l39.6,33.8Z"/>
  <polyline class="cls-3" points="335.28 238.61 332.53 231 337.64 235.36"/>
  <line class="cls-3" x1="353.69" y1="332.42" x2="352.64" y2="337.46"/>
  <line class="cls-3" x1="328.38" y1="301.47" x2="315.31" y2="311.49"/>
  <line class="cls-3" x1="455.05" y1="226.03" x2="445.75" y2="238.58"/>
  <polygon class="cls-3" points="405.37 293.18 359.33 305.38 351.57 283.83 377.24 269.17 405.37 293.18"/>
  <line class="cls-3" x1="372.49" y1="201.59" x2="373.27" y2="211.79"/>
  <text class="cls-10" transform="translate(252.89 385.93)"><tspan class="cls-11" x="0" y="0">P</tspan><tspan class="cls-6" x="15.94" y="0">L</tspan><tspan x="31.11" y="0">AN </tspan><tspan class="cls-11" x="73.16" y="0">D</tspan><tspan x="89.98" y="0">E </tspan><tspan class="cls-11" x="112.51" y="0">D</tspan><tspan x="129.33" y="0">E</tspan><tspan class="cls-4" x="144.88" y="0">S</tspan><tspan x="160.13" y="0">AR</tspan><tspan class="cls-12" x="193.94" y="0">R</tspan><tspan class="cls-11" x="210.39" y="0">O</tspan><tspan x="226.93" y="0">L</tspan><tspan class="cls-13" x="241.84" y="0">L</tspan><tspan x="256.25" y="0">O </tspan><tspan x="-11.79" y="31.22">N</tspan><tspan class="cls-11" x="6.42" y="31.22">U</tspan><tspan x="23.21" y="31.22">E</tspan><tspan class="cls-14" x="38.76" y="31.22">V</tspan><tspan x="52.89" y="31.22">A </tspan><tspan class="cls-5" x="76.72" y="31.22">A</tspan><tspan class="cls-15" x="92.55" y="31.22">G</tspan><tspan x="109.11" y="31.22">EN</tspan><tspan class="cls-1" x="142.88" y="31.22">D</tspan><tspan x="159.19" y="31.22">A </tspan><tspan class="cls-11" x="183.02" y="31.22">U</tspan><tspan x="199.82" y="31.22">R</tspan><tspan class="cls-8" x="216.77" y="31.22">B</tspan><tspan class="cls-7" x="233.19" y="31.22">A</tspan><tspan class="cls-11" x="250.03" y="31.22">N</tspan><tspan x="267.99" y="31.22">A</tspan></text>
</svg>